<?xml version="1.0" encoding="UTF-8"?>
<svg id="Layer_2" data-name="Layer 2" xmlns="http://www.w3.org/2000/svg" viewBox="0 0 478.81 478.81">
  <defs>
    <style>
      .cls-1 {
        fill: #fff;
      }

      .cls-2 {
        fill: #546c76;
      }
    </style>
  </defs>
  <g id="Layer_1-2" data-name="Layer 1">
    <g>
      <rect class="cls-2" x=".5" y=".5" width="477.81" height="477.81" rx="82.13" ry="82.13"/>
      <path d="M396.19,1c45.01,0,81.63,36.62,81.63,81.63v313.56c0,45.01-36.62,81.63-81.63,81.63H82.63c-45.01,0-81.63-36.62-81.63-81.63V82.63C1,37.62,37.62,1,82.63,1h313.56M396.19,0H82.63C36.99,0,0,36.99,0,82.63v313.56c0,45.63,36.99,82.63,82.63,82.63h313.56c45.63,0,82.63-36.99,82.63-82.63V82.63c0-45.63-36.99-82.63-82.63-82.63h0Z"/>
    </g>
    <path class="cls-1" d="M282.02,111.91c3.07,9.55-3.75,20.47-9.9,26.28-1.02,11.94-9.55,16.38-11.6,27.64-3.41,2.39-6.48,5.46-9.55,8.19,1.36,4.09-3.41,6.14-5.12,8.19-4.78,6.82-8.87,15.36-16.38,21.5-2.05,8.87-9.56,14.67-14.67,22.86-.68,1.02-1.36-.34-1.71,1.71,0,1.36-3.41,6.14-4.78,8.19-3.41,4.78-8.53,11.6-14.67,16.38.68,6.14-3.41,7.51-6.82,9.9-1.71,8.87-9.55,11.94-11.26,21.16-11.26,10.92-20.47,24.23-27.98,39.24,4.78,3.07,13.31,2.05,16.38,6.48,6.14,1.36,13.65.68,18.09,3.41,18.43,4.44,38.22,4.09,59.03,4.78,18.09,1.02,37.53,2.05,55.62,0,11.26-1.36,21.84-6.82,32.76-4.78,13.65-3.07,23.89-8.87,39.24-9.9,5.12-.34,6.48-4.44,9.9-6.48,6.14,1.02,6.14-3.41,11.6-3.41,8.19,3.07.34,22.18-13.31,24.57-15.01,2.05-30.71,8.87-47.43,11.6-1.02,0-2.39-.34-3.41,0-34.46,8.53-87.7,7.17-131.03,4.78-5.8,1.71-4.44-4.09-9.55-3.07-19.79-.68-33.78-6.82-54.26-6.48-5.12,1.02-7.17,5.8-9.9,9.55-3.75,2.73-7.17,5.8-9.55,9.9-8.53,2.05-15.36,5.46-24.57,6.48-3.41-6.14-1.02-18.77-1.71-27.64,5.46-9.21,15.01-14.67,22.86-21.5,6.14-.34,10.58.34,14.67,1.71,7.85-6.82,15.01-14.67,19.79-24.57,8.53-6.14,9.9-19.45,19.45-24.57,4.44-10.58,11.6-18.09,18.09-26.27,1.36-4.78,5.8-7.51,8.19-11.26.34-.68-.34-3.07,0-3.41,1.71-1.02,6.48-5.46,8.19-8.19.34-.68-.34-2.73,0-3.07,2.05-1.71,6.14-5.46,8.19-8.19.68-.68-.34-3.07,0-3.41,5.46-4.44,9.21-9.55,13.31-18.09.34-.68,1.36.34,1.36-1.71.34-3.07,5.8-9.21,8.19-12.97,5.12-7.51,10.92-15.01,15.01-22.86,2.39-3.07,4.44-6.14,6.48-9.9,3.07-5.12,4.44-11.26,8.19-16.38.34-.68,3.07-1.02,3.07-1.71.68-.68-.34-2.39,0-3.07.68-.68,3.07-1.36,3.41-1.71,1.02-2.73,0-6.14,3.41-8.19.34-2.39,2.73-2.73,3.07-5.12,6.14-1.02,8.87,1.37,11.6,3.41Z"/>
  </g>
</svg>